<svg xmlns="http://www.w3.org/2000/svg" xmlns:xlink="http://www.w3.org/1999/xlink" width="1920" zoomAndPan="magnify" viewBox="0 0 1440 487.499991" height="650" preserveAspectRatio="xMidYMid meet" version="1.0"><defs><g/></defs><g fill="#e60000" fill-opacity="1"><g transform="translate(372.993923, 455.308272)"><g><path d="M 24.375 0 L 24.375 -239.90625 L 202.265625 -239.90625 L 202.265625 -199.3125 L 72.828125 -199.3125 L 72.828125 -146.140625 L 193.265625 -146.140625 L 193.265625 -105.71875 L 72.828125 -105.71875 L 72.828125 -40.421875 L 206.84375 -40.421875 L 206.84375 0 Z M 24.375 0 "/></g></g></g><g fill="#e60000" fill-opacity="1"><g transform="translate(570.055862, 455.308272)"><g><path d="M 24.875 0 L 24.875 -239.90625 L 72 -239.90625 L 170.1875 -79.6875 L 170.1875 -239.90625 L 215.1875 -239.90625 L 215.1875 0 L 166.59375 0 L 69.875 -156.4375 L 69.875 0 Z M 24.875 0 "/></g></g></g><g fill="#e60000" fill-opacity="1"><g transform="translate(785.609625, 455.308272)"><g><path d="M 24.546875 -239.90625 L 120.4375 -239.90625 C 139.425781 -239.90625 153.582031 -239.113281 162.90625 -237.53125 C 172.226562 -235.945312 180.570312 -232.644531 187.9375 -227.625 C 195.300781 -222.601562 201.4375 -215.921875 206.34375 -207.578125 C 211.257812 -199.234375 213.71875 -189.878906 213.71875 -179.515625 C 213.71875 -168.273438 210.6875 -157.960938 204.625 -148.578125 C 198.570312 -139.203125 190.363281 -132.171875 180 -127.484375 C 194.625 -123.222656 205.863281 -115.960938 213.71875 -105.703125 C 221.570312 -95.453125 225.5 -83.398438 225.5 -69.546875 C 225.5 -58.640625 222.960938 -48.03125 217.890625 -37.71875 C 212.816406 -27.40625 205.890625 -19.164062 197.109375 -13 C 188.328125 -6.84375 177.5 -3.054688 164.625 -1.640625 C 156.550781 -0.765625 137.078125 -0.21875 106.203125 0 L 24.546875 0 Z M 72.984375 -199.96875 L 72.984375 -144.5 L 104.734375 -144.5 C 123.609375 -144.5 135.335938 -144.769531 139.921875 -145.3125 C 148.203125 -146.289062 154.71875 -149.15625 159.46875 -153.90625 C 164.21875 -158.65625 166.59375 -164.898438 166.59375 -172.640625 C 166.59375 -180.054688 164.546875 -186.082031 160.453125 -190.71875 C 156.359375 -195.363281 150.273438 -198.175781 142.203125 -199.15625 C 137.398438 -199.695312 123.597656 -199.96875 100.796875 -199.96875 Z M 72.984375 -104.5625 L 72.984375 -40.421875 L 117.828125 -40.421875 C 135.273438 -40.421875 146.347656 -40.910156 151.046875 -41.890625 C 158.242188 -43.203125 164.101562 -46.394531 168.625 -51.46875 C 173.15625 -56.539062 175.421875 -63.332031 175.421875 -71.84375 C 175.421875 -79.039062 173.675781 -85.144531 170.1875 -90.15625 C 166.695312 -95.175781 161.648438 -98.832031 155.046875 -101.125 C 148.453125 -103.414062 134.132812 -104.5625 112.09375 -104.5625 Z M 72.984375 -104.5625 "/></g></g></g><g fill="#e60000" fill-opacity="1"><g transform="translate(1001.163387, 455.308272)"><g><path d="M 24.375 0 L 24.375 -239.90625 L 202.265625 -239.90625 L 202.265625 -199.3125 L 72.828125 -199.3125 L 72.828125 -146.140625 L 193.265625 -146.140625 L 193.265625 -105.71875 L 72.828125 -105.71875 L 72.828125 -40.421875 L 206.84375 -40.421875 L 206.84375 0 Z M 24.375 0 "/></g></g></g><g fill="#e60000" fill-opacity="1"><g transform="translate(1198.225326, 455.308272)"><g><path d="M 24.546875 0 L 24.546875 -239.90625 L 126.5 -239.90625 C 152.132812 -239.90625 170.757812 -237.75 182.375 -233.4375 C 194 -229.125 203.300781 -221.457031 210.28125 -210.4375 C 217.257812 -199.425781 220.75 -186.828125 220.75 -172.640625 C 220.75 -154.640625 215.457031 -139.773438 204.875 -128.046875 C 194.289062 -116.316406 178.472656 -108.925781 157.421875 -105.875 C 167.898438 -99.769531 176.546875 -93.0625 183.359375 -85.75 C 190.179688 -78.4375 199.375 -65.453125 210.9375 -46.796875 L 240.234375 0 L 182.296875 0 L 147.28125 -52.203125 C 134.84375 -70.859375 126.332031 -82.613281 121.75 -87.46875 C 117.164062 -92.320312 112.3125 -95.648438 107.1875 -97.453125 C 102.0625 -99.253906 93.929688 -100.15625 82.796875 -100.15625 L 72.984375 -100.15625 L 72.984375 0 Z M 72.984375 -138.4375 L 108.828125 -138.4375 C 132.054688 -138.4375 146.5625 -139.414062 152.34375 -141.375 C 158.132812 -143.34375 162.664062 -146.726562 165.9375 -151.53125 C 169.207031 -156.332031 170.84375 -162.332031 170.84375 -169.53125 C 170.84375 -177.601562 168.6875 -184.117188 164.375 -189.078125 C 160.070312 -194.046875 153.992188 -197.1875 146.140625 -198.5 C 142.203125 -199.039062 130.414062 -199.3125 110.78125 -199.3125 L 72.984375 -199.3125 Z M 72.984375 -138.4375 "/></g></g></g><g fill="#e60000" fill-opacity="1"><g transform="translate(-42.492628, 455.531391)"><g><path d="M 44.15625 0 L 44.15625 -423.09375 L 129.578125 -423.09375 L 129.578125 -235.21875 L 302.171875 -423.09375 L 417.03125 -423.09375 L 257.71875 -258.296875 L 425.6875 0 L 315.15625 0 L 198.84375 -198.5625 L 129.578125 -127.859375 L 129.578125 0 Z M 44.15625 0 "/></g></g></g><g fill="#005599" fill-opacity="1"><g transform="translate(386.643061, 149.430985)"><g><path d="M 65.890625 -42.734375 L 65.890625 -62.328125 L 116.484375 -62.328125 L 116.484375 -16.015625 C 111.566406 -11.253906 104.441406 -7.0625 95.109375 -3.4375 C 85.773438 0.175781 76.328125 1.984375 66.765625 1.984375 C 54.609375 1.984375 44.007812 -0.566406 34.96875 -5.671875 C 25.925781 -10.773438 19.128906 -18.066406 14.578125 -27.546875 C 10.035156 -37.035156 7.765625 -47.359375 7.765625 -58.515625 C 7.765625 -70.617188 10.300781 -81.375 15.375 -90.78125 C 20.457031 -100.195312 27.882812 -107.414062 37.65625 -112.4375 C 45.113281 -116.289062 54.394531 -118.21875 65.5 -118.21875 C 79.925781 -118.21875 91.195312 -115.191406 99.3125 -109.140625 C 107.425781 -103.085938 112.644531 -94.722656 114.96875 -84.046875 L 91.65625 -79.6875 C 90.019531 -85.394531 86.941406 -89.898438 82.421875 -93.203125 C 77.898438 -96.503906 72.257812 -98.15625 65.5 -98.15625 C 55.238281 -98.15625 47.082031 -94.90625 41.03125 -88.40625 C 34.976562 -81.90625 31.953125 -72.257812 31.953125 -59.46875 C 31.953125 -45.675781 35.015625 -35.328125 41.140625 -28.421875 C 47.273438 -21.523438 55.3125 -18.078125 65.25 -18.078125 C 70.164062 -18.078125 75.09375 -19.039062 80.03125 -20.96875 C 84.976562 -22.894531 89.222656 -25.234375 92.765625 -27.984375 L 92.765625 -42.734375 Z M 65.890625 -42.734375 "/></g></g></g><g fill="#005599" fill-opacity="1"><g transform="translate(510.035367, 149.430985)"><g><path d="M 11.8125 0 L 11.8125 -116.25 L 98 -116.25 L 98 -96.578125 L 35.28125 -96.578125 L 35.28125 -70.8125 L 93.640625 -70.8125 L 93.640625 -51.21875 L 35.28125 -51.21875 L 35.28125 -19.578125 L 100.21875 -19.578125 L 100.21875 0 Z M 11.8125 0 "/></g></g></g><g fill="#005599" fill-opacity="1"><g transform="translate(615.42792, 149.430985)"><g><path d="M 7.0625 -57.40625 C 7.0625 -69.25 8.832031 -79.1875 12.375 -87.21875 C 15.007812 -93.144531 18.613281 -98.457031 23.1875 -103.15625 C 27.757812 -107.863281 32.769531 -111.351562 38.21875 -113.625 C 45.457031 -116.6875 53.8125 -118.21875 63.28125 -118.21875 C 80.40625 -118.21875 94.109375 -112.90625 104.390625 -102.28125 C 114.671875 -91.65625 119.8125 -76.882812 119.8125 -57.96875 C 119.8125 -39.195312 114.707031 -24.507812 104.5 -13.90625 C 94.300781 -3.3125 80.664062 1.984375 63.59375 1.984375 C 46.300781 1.984375 32.554688 -3.285156 22.359375 -13.828125 C 12.160156 -24.378906 7.0625 -38.90625 7.0625 -57.40625 Z M 31.234375 -58.203125 C 31.234375 -45.035156 34.273438 -35.054688 40.359375 -28.265625 C 46.441406 -21.472656 54.160156 -18.078125 63.515625 -18.078125 C 72.867188 -18.078125 80.546875 -21.445312 86.546875 -28.1875 C 92.546875 -34.925781 95.546875 -45.035156 95.546875 -58.515625 C 95.546875 -71.835938 92.625 -81.773438 86.78125 -88.328125 C 80.945312 -94.878906 73.191406 -98.15625 63.515625 -98.15625 C 53.835938 -98.15625 46.035156 -94.835938 40.109375 -88.203125 C 34.191406 -81.578125 31.234375 -71.578125 31.234375 -58.203125 Z M 31.234375 -58.203125 "/></g></g></g><g fill="#005599" fill-opacity="1"><g transform="translate(738.820214, 149.430985)"><g><path d="M 37.984375 0 L 37.984375 -96.578125 L 3.484375 -96.578125 L 3.484375 -116.25 L 95.859375 -116.25 L 95.859375 -96.578125 L 61.453125 -96.578125 L 61.453125 0 Z M 37.984375 0 "/></g></g></g><g fill="#005599" fill-opacity="1"><g transform="translate(835.093943, 149.430985)"><g><path d="M 11.8125 0 L 11.8125 -116.25 L 98 -116.25 L 98 -96.578125 L 35.28125 -96.578125 L 35.28125 -70.8125 L 93.640625 -70.8125 L 93.640625 -51.21875 L 35.28125 -51.21875 L 35.28125 -19.578125 L 100.21875 -19.578125 L 100.21875 0 Z M 11.8125 0 "/></g></g></g><g fill="#005599" fill-opacity="1"><g transform="translate(940.486509, 149.430985)"><g><path d="M 86.1875 -42.734375 L 108.953125 -35.515625 C 105.460938 -22.835938 99.660156 -13.414062 91.546875 -7.25 C 83.429688 -1.09375 73.132812 1.984375 60.65625 1.984375 C 45.21875 1.984375 32.53125 -3.285156 22.59375 -13.828125 C 12.65625 -24.378906 7.6875 -38.800781 7.6875 -57.09375 C 7.6875 -76.4375 12.679688 -91.457031 22.671875 -102.15625 C 32.660156 -112.863281 45.796875 -118.21875 62.078125 -118.21875 C 76.304688 -118.21875 87.859375 -114.019531 96.734375 -105.625 C 102.023438 -100.644531 105.988281 -93.503906 108.625 -84.203125 L 85.390625 -78.65625 C 84.023438 -84.6875 81.160156 -89.441406 76.796875 -92.921875 C 72.429688 -96.410156 67.128906 -98.15625 60.890625 -98.15625 C 52.273438 -98.15625 45.285156 -95.0625 39.921875 -88.875 C 34.554688 -82.695312 31.875 -72.679688 31.875 -58.828125 C 31.875 -44.140625 34.515625 -33.675781 39.796875 -27.4375 C 45.085938 -21.195312 51.960938 -18.078125 60.421875 -18.078125 C 66.660156 -18.078125 72.023438 -20.054688 76.515625 -24.015625 C 81.003906 -27.984375 84.226562 -34.222656 86.1875 -42.734375 Z M 86.1875 -42.734375 "/></g></g></g><g fill="#005599" fill-opacity="1"><g transform="translate(1054.839297, 149.430985)"><g><path d="M 11.890625 0 L 11.890625 -116.25 L 35.359375 -116.25 L 35.359375 -70.484375 L 81.359375 -70.484375 L 81.359375 -116.25 L 104.828125 -116.25 L 104.828125 0 L 81.359375 0 L 81.359375 -50.828125 L 35.359375 -50.828125 L 35.359375 0 Z M 11.890625 0 "/></g></g></g><g fill="#005599" fill-opacity="1"><g transform="translate(1169.192085, 149.430985)"><g><path d="M 12.046875 0 L 12.046875 -116.25 L 34.890625 -116.25 L 82.46875 -38.609375 L 82.46875 -116.25 L 104.265625 -116.25 L 104.265625 0 L 80.71875 0 L 33.859375 -75.796875 L 33.859375 0 Z M 12.046875 0 "/></g></g></g><g fill="#005599" fill-opacity="1"><g transform="translate(1283.544826, 149.430985)"><g><path d="M 11.09375 0 L 11.09375 -116.25 L 34.578125 -116.25 L 34.578125 0 Z M 11.09375 0 "/></g></g></g><g fill="#005599" fill-opacity="1"><g transform="translate(1325.739992, 149.430985)"><g><path d="M 86.1875 -42.734375 L 108.953125 -35.515625 C 105.460938 -22.835938 99.660156 -13.414062 91.546875 -7.25 C 83.429688 -1.09375 73.132812 1.984375 60.65625 1.984375 C 45.21875 1.984375 32.53125 -3.285156 22.59375 -13.828125 C 12.65625 -24.378906 7.6875 -38.800781 7.6875 -57.09375 C 7.6875 -76.4375 12.679688 -91.457031 22.671875 -102.15625 C 32.660156 -112.863281 45.796875 -118.21875 62.078125 -118.21875 C 76.304688 -118.21875 87.859375 -114.019531 96.734375 -105.625 C 102.023438 -100.644531 105.988281 -93.503906 108.625 -84.203125 L 85.390625 -78.65625 C 84.023438 -84.6875 81.160156 -89.441406 76.796875 -92.921875 C 72.429688 -96.410156 67.128906 -98.15625 60.890625 -98.15625 C 52.273438 -98.15625 45.285156 -95.0625 39.921875 -88.875 C 34.554688 -82.695312 31.875 -72.679688 31.875 -58.828125 C 31.875 -44.140625 34.515625 -33.675781 39.796875 -27.4375 C 45.085938 -21.195312 51.960938 -18.078125 60.421875 -18.078125 C 66.660156 -18.078125 72.023438 -20.054688 76.515625 -24.015625 C 81.003906 -27.984375 84.226562 -34.222656 86.1875 -42.734375 Z M 86.1875 -42.734375 "/></g></g></g></svg>